<?xml version="1.0" encoding="UTF-8"?>
<svg width="63px" height="20px" viewBox="0 0 63 20" version="1.1" xmlns="http://www.w3.org/2000/svg" xmlns:xlink="http://www.w3.org/1999/xlink">
    <!-- Generator: Sketch 43.1 (39012) - http://www.bohemiancoding.com/sketch -->
    <title>email icon 2</title>
    <desc>Created with Sketch.</desc>
    <defs></defs>
    <g id="Welcome" stroke="none" stroke-width="1" fill="none" fill-rule="evenodd">
        <g id="Tablet-Portrait" transform="translate(-198.000000, -140.000000)" fill-rule="nonzero" fill="#D8D8D8">
            <g id="Hire-Me-+-email-icon-2-+-Rectangle-36" transform="translate(29.000000, 128.000000)">
                <g id="Hire-Me-+-email-icon-2" transform="translate(71.000000, 9.000000)">
                    <g id="email-icon-2" transform="translate(98.000000, 3.000000)">
                        <path d="M28.5139665,2 L28,2 L28,18 L60.8715084,18 L60.8715084,2 L60.3575419,2 L44.4357542,14.6666667 L28.5139665,2 Z M0,17 L0,15 L25.4913321,15 L25.4913321,17 L0,17 Z M11,6 L11,4 L25.969173,4 L25.969173,6 L11,6 Z M6,11 L6,9 L25.6184991,9 L25.6184991,11 L6,11 Z M26,0 L62.8715084,0 L62.8715084,20 L26,20 L26,0 Z M44.4357542,12.1109604 L57.1450619,2 L31.7264464,2 L44.4357542,12.1109604 Z" id="Combined-Shape"></path>
                    </g>
                </g>
            </g>
        </g>
    </g>
</svg>