<?xml version="1.0" encoding="UTF-8"?>
<svg width="175px" height="189px" viewBox="0 0 175 189" version="1.1" xmlns="http://www.w3.org/2000/svg" xmlns:xlink="http://www.w3.org/1999/xlink">
    <!-- Generator: Sketch 43.1 (39012) - http://www.bohemiancoding.com/sketch -->
    <title>liz</title>
    <desc>Created with Sketch.</desc>
    <defs></defs>
    <g id="Welcome" stroke="none" stroke-width="1" fill="none" fill-rule="evenodd">
        <g id="Desktop" transform="translate(-149.000000, -1080.000000)">
            <g id="liz" transform="translate(149.000000, 1080.000000)">
                <path d="M89.4200627,181.878261 C89.4200627,183.390809 88.1917712,184.617391 86.677116,184.617391 L75.1567398,184.617391 C73.6420846,184.617391 72.4137931,183.390809 72.4137931,181.878261 L72.4137931,162.704348 C72.4137931,161.1918 73.6420846,159.965217 75.1567398,159.965217 L86.677116,159.965217 C88.1917712,159.965217 89.4200627,161.1918 89.4200627,162.704348 L89.4200627,181.878261" id="Fill-1" fill="#5D5D5D"></path>
                <path d="M108.62069,181.878261 C108.62069,183.390809 107.392398,184.617391 105.877743,184.617391 L94.3573668,184.617391 C92.8427116,184.617391 91.6144201,183.390809 91.6144201,181.878261 L91.6144201,162.704348 C91.6144201,161.1918 92.8427116,159.965217 94.3573668,159.965217 L105.877743,159.965217 C107.392398,159.965217 108.62069,161.1918 108.62069,162.704348 L108.62069,181.878261" id="Fill-2" fill="#5D5D5D"></path>
                <path d="M127.705016,102.368974 C127.589263,93.2849217 133.599608,76.7455043 133.66105,67.6598087 C133.727429,57.7945565 127.705016,29.6516348 127.705016,29.6516348 C127.705016,26.6577652 126.371395,24.1043478 124.726724,24.1043478 L44.4017241,28.3494522 C44.4845611,28.7515565 44.4741379,29.172287 44.3380878,29.5804174 C44.0659875,30.3928435 43.7911442,31.2523826 43.3363636,31.9815391 C42.7746082,32.8821652 42.1102665,33.5313391 41.2484326,34.1388783 C40.5462382,34.634113 39.6476489,34.6324696 38.8752351,34.3152783 C39.4210815,37.0752261 43.7456113,59.2413652 43.7247649,68.7998348 C43.7028213,78.7434261 37.2793887,96.7948435 37.1729624,106.736791 C37.0829937,115.141539 42.6193574,130.000226 43.7247649,138.162287 C44.1181034,141.069052 38.5060345,145.721739 40.1507053,145.721739 L124.726724,145.721739 C126.371395,145.721739 137.545611,148.690957 137.234561,145.751322 C136.02163,134.285322 127.853135,114.0426 127.705016,102.368974" id="Fill-3" fill="#5D5D5D"></path>
                <path d="M107.523511,156.8196 C107.523511,157.951957 105.994044,158.869565 103.768966,158.869565 L73.1510972,158.869565 C70.9260188,158.869565 69.1222571,157.951957 69.1222571,156.8196 L69.1222571,94.0847478 C69.1222571,92.9529391 70.9260188,92.0347826 73.1510972,92.0347826 L103.768966,92.0347826 C105.994044,92.0347826 107.523511,92.9529391 107.523511,94.0847478 L107.523511,156.8196" id="Fill-4" fill="#F7EFF2"></path>
                <path d="M113.009404,92.0347826 L106.622179,92.0347826 L90.8710815,122.258348 L71.5848746,92.0347826 L64.7335423,92.0347826 C63.2188871,92.0347826 61.9905956,93.2613652 61.9905956,94.773913 L61.9905956,162.704348 C61.9905956,164.217443 63.2188871,165.443478 64.7335423,165.443478 L113.009404,165.443478 C114.52406,165.443478 115.752351,164.217443 115.752351,162.704348 L115.752351,94.773913 C115.752351,93.2613652 114.52406,92.0347826 113.009404,92.0347826" id="Fill-5" fill="#F6DD52"></path>
                <path d="M70.2194357,162.704348 C70.2194357,164.217443 68.9916928,165.443478 67.476489,165.443478 L55.9561129,165.443478 C54.4414577,165.443478 53.2131661,164.217443 53.2131661,162.704348 L53.2131661,92.0347826 C53.2131661,90.5222348 54.4414577,89.2956522 55.9561129,89.2956522 L67.476489,89.2956522 C68.9916928,89.2956522 70.2194357,90.5222348 70.2194357,92.0347826 L70.2194357,162.704348" id="Fill-6" fill="#99E1AF"></path>
                <path d="M123.432602,162.704348 C123.432602,164.217443 122.20431,165.443478 120.689655,165.443478 L109.169279,165.443478 C107.654624,165.443478 106.426332,164.217443 106.426332,162.704348 L106.426332,92.0347826 C106.426332,90.5222348 107.654624,89.2956522 109.169279,89.2956522 L120.689655,89.2956522 C122.20431,89.2956522 123.432602,90.5222348 123.432602,92.0347826 L123.432602,162.704348" id="Fill-7" fill="#99E1AF"></path>
                <path d="M106.451567,91.661713 C106.077429,91.8468783 105.698903,92.0276609 105.318182,92.2013217 C105.704389,92.2911652 106.05,92.4138783 106.346238,92.5639826 L106.426332,92.4100435 L106.426332,92.0347826 C106.426332,91.9082348 106.43511,91.7838783 106.451567,91.661713 M70.1942006,91.661713 C70.2106583,91.7838783 70.2194357,91.9082348 70.2194357,92.0347826 L70.9682602,92.0347826 C70.709326,91.913713 70.4498433,91.7882609 70.1942006,91.661713 M48.926489,60.8086957 C48.8590125,61.7131565 48.8244514,62.6263826 48.8244514,63.5478261 C48.8244514,73.4952522 52.840674,82.5464348 59.4045455,89.2956522 L66.0572884,89.2956522 C56.3911442,82.9715478 49.8124608,72.6439304 48.926489,60.8086957 M127.719279,60.8086957 C126.833307,72.6439304 120.254624,82.9715478 110.58848,89.2956522 L117.241223,89.2956522 C122.272884,84.1225304 125.807445,77.5957304 127.183307,70.3507304 C126.741144,70.1732348 126.311599,69.9765652 125.897414,69.762913 C126.721395,67.4072609 127.363793,64.956287 127.80431,62.4291652 C127.787853,61.8868174 127.759326,61.3455652 127.719279,60.8086957" id="Fill-8" fill="#5D5D5D"></path>
                <path d="M105.318182,92.2013217 C100.170219,94.5531391 94.4072884,95.8695652 88.322884,95.8695652 C82.4381661,95.8695652 76.8546238,94.6386 71.8372257,92.4297652 L76.4119122,99.5986174 C79.7100313,100.596209 83.1930251,101.189504 86.8027429,101.320435 L87.8681034,100.646609 C88.3234326,100.359 88.8308777,100.221496 89.332837,100.221496 C90.1387147,100.221496 90.929232,100.575939 91.4613636,101.230043 C95.5922414,100.919426 99.5415361,100.00127 103.217085,98.5681565 L106.346238,92.5639826 C106.05,92.4138783 105.704389,92.2911652 105.318182,92.2013217" id="Fill-9" fill="#E6E0E3"></path>
                <path d="M106.426332,92.4100435 L103.217085,98.5681565 C104.312069,98.1414 105.382915,97.6686261 106.426332,97.1525739 L106.426332,92.4100435 M70.9682602,92.0347826 L70.2194357,92.0347826 L70.2194357,97.1525739 C72.1927116,98.1282522 74.2619906,98.9488957 76.4119122,99.5986174 L71.8372257,92.4297652 C71.5453762,92.3010261 71.255721,92.1700957 70.9682602,92.0347826" id="Fill-10" fill="#E6D053"></path>
                <path d="M66.0572884,89.2956522 L59.4045455,89.2956522 C62.4952978,92.4735913 66.1516458,95.1415043 70.2194357,97.1525739 L70.2194357,92.0347826 C70.2194357,91.9082348 70.2106583,91.7838783 70.1942006,91.661713 C68.7618339,90.9522783 67.3804859,90.1617652 66.0572884,89.2956522" id="Fill-11" fill="#93D4A7"></path>
                <path d="M117.241223,89.2956522 L110.58848,89.2956522 C109.265282,90.1617652 107.883934,90.9522783 106.451567,91.661713 C106.43511,91.7838783 106.426332,91.9082348 106.426332,92.0347826 L106.426332,97.1525739 C110.494122,95.1415043 114.15047,92.4735913 117.241223,89.2956522" id="Fill-12" fill="#93D4A7"></path>
                <path d="M127.821317,58.0695652 C127.821317,78.9461217 110.136991,95.8695652 88.322884,95.8695652 C66.5087774,95.8695652 48.8244514,78.9461217 48.8244514,58.0695652 C48.8244514,37.1930087 66.5087774,20.2695652 88.322884,20.2695652 C110.136991,20.2695652 127.821317,37.1930087 127.821317,58.0695652" id="Fill-13" fill="#F7EFF2"></path>
                <polygon id="Fill-14" fill="#7F7E7F" points="82.2884013 54.7826087 93.2601881 54.7826087 93.2601881 58.6173913 82.2884013 58.6173913"></polygon>
                <path d="M127.802665,21.4057565 C122.136834,17.5030435 117.934639,11.1586696 111.548511,8.48473043 C110.138088,7.89417391 109.619122,6.5394 109.756818,5.32158261 C92.6594828,1.1487913 77.8212382,3.13630435 70.1651254,4.80443478 C69.8941223,5.50893913 69.3192006,6.08853913 68.3887931,6.29342609 C67.5692006,6.4742087 66.7693574,6.68621739 65.9892633,6.93164348 C66.0523511,7.82186087 65.6765674,8.72796522 64.655094,9.30427826 C63.2358934,10.1052 61.6784483,10.6990435 60.4556426,11.7979826 C59.5669279,12.596713 58.293652,12.7090174 57.2979624,12.2751391 C54.5347179,15.2180609 52.3003135,18.5921217 49.9128527,21.8347043 C49.7581505,22.0450696 49.5869906,22.2209217 49.4059561,22.3715739 C49.3862069,22.7260174 49.3730408,23.0832 49.3730408,23.4436696 L49.3730408,28.0224 C49.3730408,37.5052696 56.4586207,45.4695652 64.8487461,45.4695652 L68.9494514,45.4695652 L74.2773511,21.2167565 L76.1804075,45.4695652 L113.462539,45.4695652 C121.852665,45.4695652 128.369906,37.5052696 128.369906,28.0224 L128.369906,24.6954522 C127.514107,23.8753565 127.324295,22.4800435 127.802665,21.4057565" id="Fill-15" fill="#5D5D5D"></path>
                <path d="M74.9592476,48.7565217 L61.7645768,48.7565217 C56.5595611,48.7565217 52.1159875,52.0829217 52.1159875,56.1861391 L52.1159875,57.9194609 C52.1159875,62.0226783 56.5595611,65.1913043 61.7645768,65.1913043 L74.9592476,65.1913043 C80.1642633,65.1913043 84.4827586,62.0226783 84.4827586,57.9194609 L84.4827586,56.1861391 C84.4827586,52.0829217 80.1642633,48.7565217 74.9592476,48.7565217 L74.9592476,48.7565217 Z M81.1912226,57.547487 C81.1912226,60.3660522 78.6068182,62.4521739 75.5067398,62.4521739 L62.9978056,62.4521739 C59.8971787,62.4521739 57.6018809,60.3660522 57.6018809,57.547487 L57.6018809,57.5042087 C57.6018809,54.6856435 59.8971787,52.0434783 62.9978056,52.0434783 L75.5067398,52.0434783 C78.6068182,52.0434783 81.1912226,54.6856435 81.1912226,57.5042087 L81.1912226,57.547487 L81.1912226,57.547487 Z" id="Fill-16" fill="#5D5D5D"></path>
                <path d="M101.592712,48.7565217 L114.054467,48.7565217 C118.970376,48.7565217 122.884013,52.0829217 122.884013,56.1861391 L122.884013,57.9194609 C122.884013,62.0226783 118.970376,65.1913043 114.054467,65.1913043 L101.592712,65.1913043 C96.6768025,65.1913043 92.7115987,62.0226783 92.7115987,57.9194609 L92.7115987,56.1861391 C92.7115987,52.0829217 96.6768025,48.7565217 101.592712,48.7565217 L101.592712,48.7565217 Z M95.4545455,57.547487 C95.4545455,60.3660522 98.1475705,62.4521739 101.07594,62.4521739 L112.889812,62.4521739 C115.818182,62.4521739 117.946708,60.3660522 117.946708,57.547487 L117.946708,57.5042087 C117.946708,54.6856435 115.818182,52.0434783 112.889812,52.0434783 L101.07594,52.0434783 C98.1475705,52.0434783 95.4545455,54.6856435 95.4545455,57.5042087 L95.4545455,57.547487 L95.4545455,57.547487 Z" id="Fill-17" fill="#5D5D5D"></path>
                <polygon id="Fill-18" fill="#5D5D5D" points="49.3730408 49.8521739 57.6018809 49.8521739 57.6018809 55.3304348 49.3730408 55.3304348"></polygon>
                <polygon id="Fill-19" fill="#5D5D5D" points="116.84953 49.3043478 125.07837 49.3043478 125.07837 54.7826087 116.84953 54.7826087"></polygon>
                <path d="M76.8348746,56.350487 C76.9566614,57.2653565 74.8868339,58.2958174 72.2119122,58.6513565 C69.5369906,59.0068957 64.7851097,57.9517826 61.4776646,58.3911391 C59.1291536,58.7034 69.0953762,55.692 71.7702978,55.3370087 C74.4452194,54.9814696 76.7125392,55.4350696 76.8348746,56.350487" id="Fill-20" fill="#5D5D5D"></path>
                <path d="M100.219592,56.6863043 C100.166928,57.6082957 102.23127,58.4755043 104.830486,58.6239652 C107.429154,58.7718783 111.927038,57.3535565 115.141223,57.5370783 C117.422806,57.666913 107.620063,55.4339739 105.020846,55.285513 C102.422179,55.1376 100.272257,55.7648609 100.219592,56.6863043" id="Fill-21" fill="#5D5D5D"></path>
                <path d="M88.982837,66.4836261 C85.295768,66.4836261 82.3070533,68.2936435 82.3070533,70.5260348 C82.3070533,72.7584261 85.295768,74.5684435 88.982837,74.5684435 C92.669906,74.5684435 95.6586207,72.7584261 95.6586207,70.5260348 C95.6586207,68.2936435 92.669906,66.4836261 88.982837,66.4836261" id="Fill-22" fill="#E6E0E3"></path>
                <path d="M95.6586207,69.391487 C95.6586207,71.6238783 92.669906,73.4338957 88.982837,73.4338957 C85.295768,73.4338957 82.3070533,71.6238783 82.3070533,69.391487 C82.3070533,67.1585478 85.295768,65.3485304 88.982837,65.3485304 C92.669906,65.3485304 95.6586207,67.1585478 95.6586207,69.391487" id="Fill-23" fill="#EFDAE5"></path>
                <path d="M98.7647335,73.4338957 C99.0982759,73.4338957 99.3753135,74.0567739 99.3001567,74.7678522 C96.1863636,86.3220522 82.1051724,86.3220522 78.9913793,74.7678522 C78.9162226,74.0567739 79.1932602,73.4338957 79.5268025,73.4338957 L79.612931,73.4338957 C79.9464734,73.4338957 80.211442,73.977887 80.2767241,74.5991217 C83.1601097,84.6807652 95.1314263,84.6807652 98.0148119,74.5991217 C98.080094,73.977887 98.3450627,73.4338957 98.678605,73.4338957 L98.7647335,73.4338957" id="Fill-24" fill="#D48CE0"></path>
                <path d="M59.6590909,66.4836261 C56.2507053,66.4836261 53.4874608,69.2430261 53.4874608,72.6466696 C53.4874608,76.050313 56.2507053,78.809713 59.6590909,78.809713 C63.0674765,78.809713 65.830721,76.050313 65.830721,72.6466696 C65.830721,69.2430261 63.0674765,66.4836261 59.6590909,66.4836261" id="Fill-25" fill="#F3E5F0"></path>
                <path d="M116.712382,67.0314522 C113.303997,67.0314522 110.540752,69.7908522 110.540752,73.1944957 C110.540752,76.5981391 113.303997,79.3575391 116.712382,79.3575391 C120.120768,79.3575391 122.884013,76.5981391 122.884013,73.1944957 C122.884013,69.7908522 120.120768,67.0314522 116.712382,67.0314522" id="Fill-26" fill="#F3E5F0"></path>
                <path d="M108.0721,185.713043 C108.0721,187.225591 107.024843,188.452174 105.435031,188.452174 L94.4939655,188.452174 C92.903605,188.452174 91.6144201,187.225591 91.6144201,185.713043 L91.6144201,184.069565 C91.6144201,182.557017 92.903605,181.330435 94.4939655,181.330435 L105.435031,181.330435 C107.024843,181.330435 108.0721,182.557017 108.0721,184.069565 L108.0721,185.713043" id="Fill-27" fill="#D48CE0"></path>
                <path d="M89.4200627,185.713043 C89.4200627,187.225591 88.1072884,188.452174 86.4878527,188.452174 L75.3460031,188.452174 C73.7265674,188.452174 72.4137931,187.225591 72.4137931,185.713043 L72.4137931,184.069565 C72.4137931,182.557017 73.7265674,181.330435 75.3460031,181.330435 L86.4878527,181.330435 C88.1072884,181.330435 89.4200627,182.557017 89.4200627,184.069565 L89.4200627,185.713043" id="Fill-28" fill="#D48CE0"></path>
                <path d="M123.432602,95.901887 L123.432602,107.161904 L126.005486,99.6802435 C126.497571,98.2493217 125.735031,96.6913043 124.302116,96.1999043 L123.432602,95.901887" id="Fill-29" fill="#5D5D5D"></path>
                <path d="M91.4613636,101.230043 C90.4267241,101.307835 89.3789185,101.347826 88.322884,101.347826 C87.8143417,101.347826 87.306348,101.338513 86.8027429,101.320435 L83.6966301,103.284391 C82.4167712,104.09353 82.0360502,105.785765 82.8463166,107.063843 L91.5974138,120.864678 L97.1628527,110.185357 L91.6528213,101.495739 C91.5935737,101.402061 91.5299373,101.313861 91.4613636,101.230043" id="Fill-30" fill="#E6E0E3"></path>
                <path d="M97.1628527,110.185357 L91.5974138,120.864678 L103.096395,138.999913 C103.618652,139.823296 104.507915,140.274157 105.416379,140.274157 C105.756505,140.274157 106.098824,140.211157 106.426332,140.080774 L106.426332,124.56853 L106.375862,124.715348 L97.1628527,110.185357" id="Fill-31" fill="#E6D053"></path>
                <path d="M118.741066,94.4490522 C117.602194,94.4490522 116.537931,95.1634174 116.147335,96.2996087 L106.426332,124.56853 L106.426332,140.080774 C106.582132,140.01887 106.734639,139.941626 106.881113,139.849043 L110.968652,137.2644 C111.018574,137.267139 111.069044,137.268783 111.118966,137.268783 C112.257288,137.268783 113.321003,136.56647 113.711599,135.430826 L123.432602,107.161904 L123.432602,95.901887 L119.632524,94.5986087 C119.337382,94.4972609 119.036755,94.4490522 118.741066,94.4490522" id="Fill-32" fill="#93D4A7"></path>
                <path d="M89.332837,100.221496 C88.8308777,100.221496 88.3234326,100.359 87.8681034,100.646609 L86.8027429,101.320435 C87.306348,101.338513 87.8143417,101.347826 88.322884,101.347826 C89.3789185,101.347826 90.4267241,101.307835 91.4613636,101.230043 C90.929232,100.575939 90.1387147,100.221496 89.332837,100.221496" id="Fill-33" fill="#D8D3D5"></path>
                <path d="M30.0851881,99.6736696 C29.5832288,99.6736696 29.0757837,99.8111739 28.6204545,100.098783 L24.4489812,102.736565 C23.1691223,103.545704 22.7884013,105.237939 23.5986677,106.516017 L43.7368339,138.275687 C43.7335423,138.237339 43.7297022,138.199539 43.7247649,138.162287 C42.6956113,130.561748 37.8235893,117.154252 37.2311129,108.558861 L32.4051724,100.947913 C31.8829154,100.12453 30.993652,99.6736696 30.0851881,99.6736696" id="Fill-34" fill="#EEEEEE"></path>
                <path d="M53.2131661,100.138774 L45.7161442,121.940609 L37.2311129,108.558861 C37.8235893,117.154252 42.6956113,130.561748 43.7247649,138.162287 C43.7297022,138.199539 43.7335423,138.237339 43.7368339,138.275687 L43.8487461,138.452087 C44.3710031,139.27547 45.2602665,139.72633 46.1687304,139.72633 C46.6706897,139.72633 47.1781348,139.588826 47.6340125,139.301217 L49.1152038,138.364435 L49.1261755,138.364435 C50.1695925,138.364435 51.140047,137.768948 51.5975705,136.794913 L51.8049373,136.663435 C52.963558,135.930991 53.375,134.478157 52.8439655,133.260887 L53.2131661,132.187696 L53.2131661,100.138774" id="Fill-35" fill="#5D5D5D"></path>
                <path d="M56.7510188,95.5447043 C55.6115987,95.5447043 54.5473354,96.2590696 54.1567398,97.3952609 L53.2131661,100.138774 L53.2131661,132.187696 L64.0148903,100.775896 C64.5069749,99.3449739 63.7444357,97.7869565 62.3115204,97.2955565 L57.6419279,95.6942609 C57.3467868,95.592913 57.0461599,95.5447043 56.7510188,95.5447043" id="Fill-36" fill="#93D4A7"></path>
                <path d="M52.9289969,131.650826 C52.4369122,133.0812 50.6693574,133.772009 48.981348,133.192957 L43.480094,131.306791 C41.7920846,130.727739 40.8221787,129.098504 41.3142633,127.667583 L53.6081505,91.917 C54.1002351,90.4860783 55.8672414,89.7958174 57.5552508,90.3743217 L63.0570533,92.2610348 C64.7450627,92.840087 65.7144201,94.4687739 65.222884,95.8996957 L52.9289969,131.650826" id="Fill-37" fill="#99E1AF"></path>
                <path d="M113.711599,129.952565 C113.219514,131.383487 111.659326,132.144965 110.226411,131.653565 L105.556818,130.05227 C104.123903,129.56087 103.361364,128.002852 103.853448,126.57193 L116.147335,90.8213478 C116.63942,89.3904261 118.199608,88.6289478 119.632524,89.1203478 L124.302116,90.7216435 C125.735031,91.2130435 126.497571,92.7710609 126.005486,94.2019826 L113.711599,129.952565" id="Fill-38" fill="#99E1AF"></path>
                <path d="M54.3547806,127.991896 C55.3362069,129.144522 55.195768,130.872913 54.0415361,131.852974 L50.2793103,135.045704 C49.1250784,136.025217 47.3937304,135.884974 46.4128527,134.732348 L21.8991379,105.929843 C20.9177116,104.777217 21.0581505,103.048826 22.2123824,102.068765 L25.9746082,98.8760348 C27.1288401,97.8965217 28.8601881,98.0367652 29.8410658,99.1893913 L54.3547806,127.991896" id="Fill-39" fill="#99E1AF"></path>
                <path d="M111.9029,127.953548 C112.713166,129.231626 112.332445,130.923861 111.052586,131.733 L106.881113,134.370783 C105.601254,135.179922 103.90721,134.79973 103.096395,133.521652 L82.8463166,101.585583 C82.0360502,100.307504 82.4167712,98.6152696 83.6966301,97.8061304 L87.8681034,95.1683478 C89.1479624,94.3592087 90.8425549,94.7394 91.6528213,96.0174783 L111.9029,127.953548" id="Fill-40" fill="#99E1AF"></path>
                <path d="M24.0210815,90.1595739 L20.9423981,83.6119565 C20.7130878,83.1249391 20.1595611,82.9019739 19.5341693,83.1950609 C18.9087774,83.4886957 18.7266458,84.0562435 18.9559561,84.5432609 L22.0384796,91.0990957 L17.6969436,93.1348174 C16.8038401,93.5539043 16.4154389,94.6079217 16.8351097,95.5003304 L19.569279,101.314957 C19.9884013,102.206817 21.0005486,102.479635 21.893652,102.060548 L28.3637147,99.0272348 C29.2568182,98.6081478 29.9200627,97.5502957 29.5003918,96.6584348 L26.7667712,90.8432609 C26.3471003,89.9514 25.0140282,89.6939217 24.0210815,90.1595739" id="Fill-41" fill="#EFDAE5"></path>
                <path d="M87.8587774,90.4318435 L85.4499216,83.610313 C85.2705329,83.1024783 84.7422414,82.8258261 84.0905172,83.0553652 C83.4393417,83.2849043 83.2012539,83.831087 83.3806426,84.3389217 L85.7922414,91.1692174 L81.2691223,92.7622957 C80.3387147,93.0898957 79.8471787,94.100087 80.1752351,95.0297478 L82.3147335,101.088157 C82.64279,102.01727 83.6225705,102.389791 84.5529781,102.061643 L91.2940439,99.687913 C92.2244514,99.360313 92.9897335,98.3736783 92.6616771,97.4445652 L90.5227273,91.3861565 C90.1941223,90.4564957 88.8934169,90.0675391 87.8587774,90.4318435" id="Fill-42" fill="#EFDAE5"></path>
                <path d="M133.304467,31.6243565 C114.7029,-10.738487 61.1830721,-10.5598957 42.8859718,32.1716348 C42.6610502,32.1623217 42.2194357,32.1557478 41.9923197,32.1557478 C33.765674,32.1557478 26.8808777,38.2273043 26.8808777,45.716087 L26.8808777,58.4787913 C26.8808777,65.9681217 33.538558,72.0391304 41.7652038,72.0391304 C44.5481975,72.0391304 47.1841693,71.3422957 49.3977273,70.1332435 C47.6340125,65.226913 46.6783699,59.9004 46.6783699,54.3262696 C46.6783699,43.0235217 45.0539969,32.7178174 51.5865987,24.9348522 C52.6892633,23.6211652 52.3398119,22.3792435 53.5812696,21.2167565 C60.7683386,14.4856174 77.3132445,4.93043478 87.5992947,4.93043478 C97.9275862,4.93043478 113.486129,11.2326261 120.684718,18.0136174 C121.357837,18.648 123.071082,21.4966957 123.703605,22.176 C131.105721,30.1238609 128.502665,42.1984957 128.502665,54.3262696 C128.502665,59.7596087 127.577743,64.9595739 125.897414,69.762913 C128.042398,70.871713 130.595533,71.5071913 133.251254,71.5071913 C141.4779,71.5071913 148.119122,65.4361826 148.119122,57.9468522 L148.119122,45.1841478 C148.119122,37.6975565 141.52837,31.6276435 133.304467,31.6243565" id="Fill-43" fill="#42495D"></path>
                <path d="M13.806348,48.7565217 C13.806348,43.1281565 16.0857367,38.0399478 19.7744514,34.3558174 C23.4637147,30.671687 28.5595611,28.3960174 34.1952194,28.3954696 L34.1952194,27.8476435 C22.6227273,27.8476435 13.2577586,37.1995826 13.2577586,48.7565217 L13.806348,48.7565217" id="Fill-44" fill="#5D5D5D"></path>
                <path d="M0.640203762,48.7565217 C0.640203762,39.0912261 4.55548589,30.3506609 10.8905956,24.0232696 C17.2268025,17.6969739 25.9795455,13.7871391 35.6583072,13.7871391 L35.6583072,13.239313 C15.9996082,13.239313 0.0916144201,29.1251739 0.0916144201,48.7565217 L0.640203762,48.7565217" id="Fill-45" fill="#5D5D5D"></path>
                <path d="M154.432837,33.7827913 C158.418339,37.7627478 160.409169,42.9698348 160.409718,48.1802087 C160.409169,53.3900348 158.41779,58.5976696 154.432837,62.5770783 L154.82069,62.9649391 C158.912069,58.8792522 160.958856,53.5286348 160.958307,48.1802087 C160.958856,42.8317826 158.912069,37.4806174 154.82069,33.3954783 L154.432837,33.7827913" id="Fill-46" fill="#5D5D5D"></path>
                <path d="M163.742947,24.4856348 C170.586599,31.320313 174.007602,40.2652174 174.00815,49.2128609 C174.007602,58.1605043 170.586599,67.1054087 163.742947,73.940087 L164.130799,74.3274 C171.080329,67.3875391 174.55674,58.2991043 174.556191,49.2128609 C174.55674,40.1271652 171.080878,31.0387304 164.130799,24.0983217 L163.742947,24.4856348" id="Fill-47" fill="#5D5D5D"></path>
                <path d="M122.074295,141.651391 C121.74953,142.152104 121.293652,142.052948 121.062696,141.431713 C120.093887,138.820774 119.677508,137.530096 118.954467,134.972843 C118.782759,134.364209 118.954467,133.475087 119.330799,132.98533 C119.549138,132.701557 119.658307,132.55967 119.877743,132.276443 C120.25627,131.787235 120.683072,131.879817 120.838871,132.485165 C121.492241,135.027078 121.870219,136.309539 122.753997,138.901852 C122.964655,139.518704 122.875235,140.425904 122.547179,140.92607 C122.356818,141.21587 122.262461,141.361043 122.074295,141.651391" id="Fill-48" fill="#D48CE0"></path>
                <path d="M123.62406,131.745052 C123.252665,132.235904 122.822571,132.142774 122.670611,131.537974 C122.033699,128.999348 121.769279,127.742087 121.323824,125.245096 C121.217947,124.650157 121.467555,123.778017 121.873511,123.294835 C122.108856,123.014896 122.226254,122.874652 122.461599,122.594713 C122.868103,122.11153 123.269122,122.198635 123.365125,122.790835 C123.767241,125.278513 124.005878,126.530843 124.584639,129.05687 C124.722335,129.658383 124.536912,130.544217 124.163871,131.034522 C123.947727,131.318843 123.839655,131.46073 123.62406,131.745052" id="Fill-49" fill="#D48CE0"></path>
                <path d="M126.280329,120.909052 C125.882053,121.393878 125.480486,121.306774 125.391066,120.71567 C125.016379,118.234017 124.86826,117.001957 124.624138,114.548243 C124.565987,113.964261 124.86058,113.101983 125.273668,112.620443 C125.513401,112.341052 125.632994,112.201357 125.871082,111.921965 C126.282524,111.440426 126.655016,111.520957 126.709875,112.104391 C126.940282,114.554817 127.077429,115.784687 127.423589,118.260313 C127.505878,118.849226 127.255172,119.721365 126.856897,120.206739 C126.626489,120.487774 126.511285,120.628017 126.280329,120.909052" id="Fill-50" fill="#D48CE0"></path>
                <path d="M129.495611,110.7792 C129.097335,111.264574 128.723746,111.182948 128.66779,110.599513 C128.432994,108.148539 128.340282,106.927983 128.178448,104.492348 C128.140047,103.912748 128.434639,103.05047 128.829075,102.564548 C129.057837,102.282965 129.171395,102.142174 129.397962,101.860043 C129.788558,101.373574 130.133621,101.448626 130.175313,102.029322 C130.351411,104.467696 130.446865,105.6888 130.680564,108.139774 C130.735972,108.723209 130.466066,109.590965 130.070533,110.076339 C129.840674,110.357922 129.726019,110.498165 129.495611,110.7792" id="Fill-51" fill="#D48CE0"></path>
                <path d="M132.478292,100.892035 C132.103605,101.381791 131.756348,101.306739 131.710266,100.725496 C131.515517,98.2827391 131.42884,97.0638261 131.251097,94.6249043 C131.208856,94.0442087 131.467241,93.173713 131.819984,92.6790261 C132.024608,92.392513 132.126097,92.2489826 132.327429,91.9613739 C132.675235,91.4655913 132.993417,91.5346174 133.045533,92.1175043 C133.26442,94.5651913 133.367555,95.7879391 133.588088,98.2361739 C133.640752,98.8190609 133.388401,99.6906522 133.018103,100.181504 C132.803605,100.465826 132.695533,100.608261 132.478292,100.892035" id="Fill-52" fill="#D48CE0"></path>
                <path d="M135.160893,90.3540522 C134.83558,90.8547652 134.51685,90.7857391 134.455408,90.2012087 C134.198119,87.7447565 134.065361,86.5159826 133.765282,84.0502174 C133.693966,83.4634957 133.872806,82.5760174 134.157524,82.0659913 C134.3221,81.770713 134.40384,81.6228 134.564028,81.3269739 C134.841066,80.8153043 135.13127,80.8783043 135.219044,81.4688609 C135.588793,83.9494174 135.752273,85.185313 136.06442,87.6532696 C136.13848,88.241087 135.945925,89.1252783 135.627194,89.6276348 C135.44232,89.9185304 135.34906,90.0637043 135.160893,90.3540522" id="Fill-53" fill="#D48CE0"></path>
                <path d="M137.104545,79.3635652 C136.858229,79.8812609 136.568025,79.8182609 136.464342,79.2244174 C136.026019,76.7285217 135.787931,75.4767391 135.246473,72.9589304 C135.118103,72.3596087 135.170768,71.4441913 135.357288,70.9133478 C135.465361,70.6060174 135.518025,70.4515304 135.620063,70.1431043 C135.797257,69.6100696 136.058386,69.6664957 136.210893,70.2712957 C136.851097,72.8104696 137.134718,74.072113 137.656426,76.586087 C137.780956,77.184313 137.694279,78.0920609 137.455643,78.6119478 C137.317398,78.9127043 137.247179,79.0633565 137.104545,79.3635652" id="Fill-54" fill="#D48CE0"></path>
                <path d="M122.852743,139.309983 C123.066693,139.92793 122.98221,140.836226 122.656897,141.336939 C121.289812,143.440591 120.62931,144.497348 119.380721,146.6262 C119.083386,147.133487 118.613245,147.031043 118.337853,146.399948 C118.178213,146.034 118.099765,145.851574 117.945611,145.48727 C117.679545,144.857817 117.730016,143.9424 118.05094,143.440591 C119.398824,141.333104 120.104859,140.286209 121.555878,138.200635 C121.90094,137.704304 122.342006,137.800174 122.548276,138.416478 C122.667868,138.773113 122.728213,138.952252 122.852743,139.309983" id="Fill-55" fill="#D48CE0"></path>
                <path d="M124.432132,129.118226 C124.569828,129.719191 124.384404,130.605574 124.011364,131.095878 C122.442398,133.155704 121.667241,134.187261 120.160815,136.260783 C119.802586,136.754374 119.358777,136.657957 119.177743,136.04713 C119.072962,135.693235 119.021395,135.516835 118.921003,135.164035 C118.7471,134.554852 118.917163,133.665183 119.292947,133.175426 C120.871238,131.117791 121.678762,130.092809 123.303683,128.045035 C123.690987,127.558017 124.105172,127.647861 124.236834,128.24773 C124.313088,128.5956 124.352038,128.769809 124.432132,129.118226" id="Fill-56" fill="#D48CE0"></path>
                <path d="M127.235423,118.899078 C127.320455,119.488539 127.072492,120.361226 126.675313,120.8466 C125.005956,122.884513 124.166066,123.902374 122.501646,125.941383 C122.105016,126.426757 121.689185,126.336365 121.579467,125.740878 C121.515831,125.396296 121.48511,125.22373 121.424765,124.879696 C121.320533,124.285852 121.572335,123.413713 121.97884,122.93053 C123.687696,120.901383 124.546238,119.887904 126.244122,117.856017 C126.648433,117.372287 127.035188,117.456652 127.115831,118.045017 C127.162461,118.386313 127.18605,118.557235 127.235423,118.899078" id="Fill-57" fill="#D48CE0"></path>
                <path d="M130.451254,108.476687 C130.506661,109.060122 130.236207,109.927878 129.839577,110.413252 C128.173511,112.451713 127.319906,113.466835 125.59953,115.493791 C125.189734,115.975878 124.801881,115.891513 124.740439,115.306983 C124.704781,114.967878 124.687226,114.7986 124.653762,114.460591 C124.59616,113.876609 124.890204,113.013783 125.303292,112.532243 C127.040125,110.509122 127.897022,109.495096 129.563636,107.456635 C129.960266,106.971261 130.319044,107.049052 130.372257,107.631939 C130.402978,107.969948 130.418887,108.138678 130.451254,108.476687" id="Fill-58" fill="#D48CE0"></path>
                <path d="M133.482759,98.5999304 C133.534875,99.1828174 133.281426,100.054409 132.909483,100.544713 C131.347649,102.606183 130.532445,103.629522 128.859796,105.666339 C128.46152,106.151165 128.100549,106.072826 128.059953,105.492678 C128.036912,105.156861 128.025392,104.988678 128.003448,104.652861 C127.965047,104.073261 128.260737,103.210983 128.65627,102.725061 C130.317947,100.685504 131.123276,99.6605217 132.658229,97.5935739 C133.023589,97.1010783 133.356034,97.1733913 133.407602,97.7562783 C133.437774,98.0937391 133.452586,98.2624696 133.482759,98.5999304" id="Fill-59" fill="#D48CE0"></path>
                <path d="M136.083072,88.0444174 C136.156583,88.631687 135.961834,89.5158783 135.640909,90.017687 C134.293574,92.1257217 133.571082,93.1687826 132.054232,95.2395652 C131.692712,95.7326087 131.359718,95.6602957 131.317476,95.0796 C131.29279,94.7432348 131.280721,94.5750522 131.256034,94.238687 C131.213245,93.6579913 131.469984,92.7874957 131.82163,92.2922609 C133.298981,90.212713 133.997335,89.1641739 135.289263,87.044087 C135.596473,86.5395391 135.900392,86.6058261 135.975549,87.1936435 C136.018887,87.5338435 136.040282,87.7042174 136.083072,88.0444174" id="Fill-60" fill="#D48CE0"></path>
                <path d="M137.59663,77.2527913 C137.716771,77.8499217 137.622414,78.7560261 137.37884,79.2748174 C136.354624,81.4524261 135.778056,82.5278087 134.52453,84.656113 C134.226097,85.1623043 133.92163,85.0960174 133.850862,84.5092957 C133.810266,84.1696435 133.78942,83.9998174 133.747179,83.6590696 C133.674765,83.0723478 133.850862,82.1837739 134.133386,81.6737478 C135.31779,79.5306522 135.855956,78.4476 136.796238,76.2513652 C137.020063,75.7281913 137.296003,75.7884522 137.419436,76.3866783 C137.491301,76.7334522 137.526411,76.9065652 137.59663,77.2527913" id="Fill-61" fill="#D48CE0"></path>
                <polygon id="Fill-62" fill="#04994A" points="54.8589342 146.817391 65.830721 146.817391 65.830721 149.556522 54.8589342 149.556522"></polygon>
                <polygon id="Fill-63" fill="#04994A" points="111.363636 144.078261 122.335423 144.078261 122.335423 146.817391 111.363636 146.817391"></polygon>
                <path d="M120.195376,132.00253 C120.090047,132.050739 119.981975,132.14113 119.877743,132.276443 C119.658307,132.55967 119.549138,132.701557 119.330799,132.98533 C119.126176,133.251574 118.981897,133.636148 118.920455,134.029487 C118.993417,133.704626 119.121787,133.398391 119.292947,133.175426 C119.622649,132.74593 119.918339,132.361357 120.195376,132.00253" id="Fill-64" fill="#94689B"></path>
                <path d="M121.394044,134.575122 C121.022649,135.078026 120.626567,135.619826 120.160815,136.260783 C120.006661,136.473339 119.836599,136.57633 119.678605,136.57633 C119.56779,136.57633 119.462461,136.525383 119.373041,136.425678 C119.726332,137.62213 120.039577,138.590687 120.462539,139.782757 C120.787853,139.307791 121.141144,138.79667 121.555878,138.200635 C121.703997,137.986983 121.870768,137.883443 122.028213,137.883443 C122.237226,137.883443 122.430878,138.065322 122.548276,138.416478 C122.664028,138.763252 122.724922,138.941843 122.841771,139.279852 C122.823119,139.146183 122.794044,139.019087 122.753997,138.901852 C122.14616,137.118678 121.777508,135.955096 121.394044,134.575122" id="Fill-65" fill="#94689B"></path>
                <path d="M121.464263,124.047 C121.360031,124.343922 121.299687,124.662209 121.299687,124.948174 C121.299687,125.052261 121.307367,125.151965 121.323824,125.245096 C121.631583,126.969652 121.852665,128.103104 122.170298,129.475957 C122.51152,129.04427 122.879624,128.579713 123.303683,128.045035 C123.471552,127.834122 123.644357,127.731678 123.796865,127.731678 C123.996552,127.731678 124.162226,127.90753 124.236834,128.24773 C124.313088,128.5956 124.352038,128.769809 124.432132,129.118226 C124.462853,129.251896 124.477665,129.399809 124.477665,129.554296 C124.478213,130.094452 124.301567,130.714591 124.011364,131.095878 C123.758464,131.427861 123.525862,131.733548 123.308072,132.020609 C123.412853,131.972948 123.520925,131.881461 123.62406,131.745052 C123.839655,131.46073 123.947727,131.318843 124.163871,131.034522 C124.454075,130.653235 124.630721,130.033096 124.630172,129.493487 C124.630172,129.339 124.615361,129.190539 124.584639,129.05687 C124.15674,127.18933 123.914812,126.018626 123.655329,124.530183 C123.306975,124.955843 122.93174,125.414374 122.501646,125.941383 C122.329937,126.1512 122.154389,126.253643 122.001881,126.253643 C121.802194,126.253643 121.641458,126.078339 121.579467,125.740878 C121.515831,125.396296 121.48511,125.22373 121.424765,124.879696 C121.408856,124.789304 121.401176,124.692339 121.401176,124.591539 C121.401176,124.417878 121.423119,124.232165 121.464263,124.047" id="Fill-66" fill="#94689B"></path>
                <path d="M124.787618,113.501896 C124.680643,113.804296 124.617006,114.119296 124.617006,114.392113 C124.617006,114.4458 124.619201,114.498391 124.624138,114.548243 C124.811207,116.428383 124.941771,117.591417 125.161755,119.149435 C125.490361,118.756643 125.843652,118.334817 126.244122,117.856017 C126.420768,117.645104 126.593574,117.542113 126.739498,117.542113 C126.927665,117.542113 127.070298,117.713583 127.115831,118.045017 C127.162461,118.386313 127.18605,118.557235 127.235423,118.899078 C127.246944,118.977417 127.251881,119.060687 127.251881,119.147243 C127.251881,119.287487 127.237618,119.437043 127.211285,119.588243 C127.353918,119.235991 127.43895,118.841557 127.43895,118.500809 C127.43895,118.416991 127.434013,118.335913 127.423589,118.260313 C127.176724,116.493574 127.035737,115.361217 126.892006,113.967548 C126.505251,114.42553 126.087226,114.919122 125.59953,115.493791 C125.42069,115.704157 125.24569,115.807148 125.100313,115.807148 C124.913245,115.807148 124.775,115.636226 124.740439,115.306983 C124.704781,114.967878 124.687226,114.7986 124.653762,114.460591 C124.648824,114.410191 124.64663,114.358148 124.64663,114.304461 C124.64663,114.057939 124.698746,113.776904 124.787618,113.501896" id="Fill-67" fill="#94689B"></path>
                <path d="M130.311912,103.884261 C129.884013,104.415652 129.419906,104.984296 128.859796,105.666339 C128.684248,105.880539 128.515831,105.984626 128.378683,105.984626 C128.343025,105.984626 128.309561,105.977504 128.278292,105.963261 C128.348511,106.959209 128.412696,107.791357 128.497179,108.754435 C128.822492,108.361096 129.170298,107.937078 129.563636,107.456635 C129.738636,107.242435 129.905956,107.1378 130.043103,107.1378 C130.217006,107.1378 130.342633,107.305983 130.372257,107.631939 C130.402978,107.969948 130.418887,108.138678 130.451254,108.476687 C130.456191,108.527087 130.458386,108.57913 130.458386,108.633365 C130.459483,109.088061 130.2971,109.66273 130.049138,110.102087 C130.05627,110.09387 130.063401,110.085104 130.070533,110.076339 C130.432053,109.6326 130.688793,108.869478 130.687696,108.295904 C130.687696,108.242217 130.684953,108.189626 130.680564,108.139774 C130.513793,106.391661 130.417241,105.268617 130.311912,103.884261" id="Fill-68" fill="#94689B"></path>
                <path d="M133.184326,93.6799043 C132.849687,94.1488435 132.483777,94.6528435 132.054232,95.2395652 C131.892947,95.4597913 131.737696,95.5671652 131.610972,95.5671652 C131.453527,95.5671652 131.341066,95.4011739 131.317476,95.0796 C131.293339,94.7530957 131.28127,94.584913 131.258229,94.2682696 C131.250549,94.3477043 131.246708,94.4244 131.246708,94.4978087 C131.246708,94.5416348 131.248354,94.5838174 131.251097,94.6249043 C131.383307,96.4338261 131.464498,97.5716609 131.577508,99.0354522 C131.906661,98.6010261 132.257759,98.1326348 132.658229,97.5935739 C132.82116,97.3738957 132.977508,97.2670696 133.105329,97.2670696 C133.26442,97.2670696 133.379075,97.4330609 133.407602,97.7562783 C133.437774,98.0937391 133.452586,98.2624696 133.482759,98.5999304 C133.487147,98.6503304 133.489342,98.7023739 133.48989,98.7560609 C133.48989,98.9620435 133.459169,99.1921304 133.40431,99.4238609 C133.523354,99.0803739 133.594671,98.711687 133.595219,98.3994261 C133.595219,98.343 133.593025,98.2882174 133.588088,98.2361739 C133.419671,96.3664435 133.319828,95.2116261 133.184326,93.6799043" id="Fill-69" fill="#94689B"></path>
                <path d="M135.451646,83.0531739 C135.180094,83.5358087 134.879467,84.0535043 134.52453,84.656113 C134.390125,84.8845565 134.254075,84.9968609 134.138871,84.9968609 C133.998981,84.9968609 133.889812,84.8314174 133.850862,84.5092957 C133.811364,84.1795043 133.790517,84.0096783 133.751019,83.6881043 C133.749922,83.7160435 133.749922,83.7439826 133.749922,83.7713739 C133.749922,83.8694348 133.754859,83.963113 133.765282,84.0502174 C133.99569,85.941313 134.126803,87.1048957 134.291928,88.6530522 C134.597492,88.1720609 134.918966,87.6521739 135.289263,87.044087 C135.427508,86.8167391 135.565752,86.7055304 135.682053,86.7055304 C135.824138,86.7049826 135.934404,86.8704261 135.975549,87.1936435 C136.017241,87.522887 136.038636,87.692713 136.078683,88.0115478 C136.079781,87.9819652 136.080329,87.9534783 136.080329,87.9244435 C136.080329,87.8291217 136.074843,87.7381826 136.06442,87.6532696 C135.826332,85.7692957 135.674373,84.6035217 135.451646,83.0531739" id="Fill-70" fill="#94689B"></path>
                <path d="M135.898746,69.7777043 C135.800549,69.7777043 135.701254,69.8982261 135.620063,70.1431043 C135.518025,70.4515304 135.465361,70.6060174 135.357288,70.9133478 C135.23989,71.2475217 135.175705,71.7334435 135.175705,72.1969043 C135.176254,72.4702696 135.198746,72.736513 135.246473,72.9589304 C135.661755,74.8894696 135.898197,76.075513 136.183464,77.6488696 C136.374373,77.2259478 136.57406,76.7696087 136.796238,76.2513652 C136.898276,76.012513 137.011285,75.8952783 137.115517,75.8952783 C137.240047,75.8952783 137.352508,76.0612696 137.419436,76.3866783 C137.491301,76.7334522 137.526411,76.9065652 137.59663,77.2527913 C137.63174,77.4275478 137.648746,77.6291478 137.648746,77.839513 C137.648746,77.8789565 137.648197,77.9184 137.6471,77.9578435 C137.68989,77.7157043 137.712931,77.4560348 137.712931,77.2078696 C137.712931,76.9849043 137.694828,76.7707043 137.656426,76.586087 C137.134718,74.072113 136.851097,72.8104696 136.210893,70.2712957 C136.128056,69.9442435 136.01395,69.7777043 135.898746,69.7777043" id="Fill-71" fill="#94689B"></path>
                <path d="M119.232602,146.817391 L118.622022,146.817391 C118.721317,146.904496 118.827743,146.94887 118.932524,146.94887 C119.036207,146.94887 119.138793,146.905591 119.232602,146.817391 M122.028213,137.883443 C121.870768,137.883443 121.703997,137.986983 121.555878,138.200635 C120.104859,140.286209 119.398824,141.333104 118.05094,143.440591 C117.940674,143.613704 117.862226,143.835574 117.817241,144.078261 L120.908542,144.078261 C121.421473,143.248852 121.942633,142.435878 122.656897,141.336939 C122.86152,141.021939 122.97069,140.545878 122.97069,140.082417 C122.970141,139.808504 122.93174,139.539522 122.852743,139.309983 C122.728213,138.952252 122.667868,138.773113 122.548276,138.416478 C122.430878,138.065322 122.237226,137.883443 122.028213,137.883443" id="Fill-72" fill="#A479AC"></path>
                <path d="M120.908542,144.078261 L117.817241,144.078261 C117.732759,144.53953 117.77116,145.074757 117.945611,145.48727 C118.099765,145.851574 118.178213,146.034 118.337853,146.399948 C118.418495,146.585661 118.516693,146.725357 118.622022,146.817391 L119.232602,146.817391 C119.284718,146.768087 119.334639,146.704539 119.380721,146.6262 C119.977038,145.609435 120.439498,144.837 120.908542,144.078261" id="Fill-73" fill="#288152"></path>
                <path d="M123.796865,127.731678 C123.644357,127.731678 123.471552,127.834122 123.303683,128.045035 C122.879624,128.579713 122.51152,129.04427 122.170298,129.475957 C121.477429,130.353026 120.898119,131.093139 120.195376,132.00253 C119.918339,132.361357 119.622649,132.74593 119.292947,133.175426 C119.017006,133.5348 118.851881,134.110565 118.852429,134.632096 C118.852978,134.820548 118.874922,135.001878 118.921003,135.164035 C119.021395,135.516835 119.072962,135.693235 119.177743,136.04713 C119.226019,136.21093 119.293495,136.337478 119.373041,136.425678 C119.462461,136.525383 119.56779,136.57633 119.678605,136.57633 C119.836599,136.57633 120.006661,136.473339 120.160815,136.260783 C121.667241,134.187261 122.442398,133.155704 124.011364,131.095878 C124.301567,130.714591 124.478213,130.094452 124.477665,129.554296 C124.477665,129.399809 124.462853,129.251896 124.432132,129.118226 C124.352038,128.769809 124.313088,128.5956 124.236834,128.24773 C124.162226,127.90753 123.996552,127.731678 123.796865,127.731678" id="Fill-74" fill="#A479AC"></path>
                <path d="M126.739498,117.542113 C126.593574,117.542113 126.420768,117.645104 126.244122,117.856017 C125.097571,119.227774 124.333934,120.135522 123.432602,121.205426 C122.999216,121.719835 122.534013,122.272043 121.97884,122.93053 C121.740752,123.213757 121.555329,123.630652 121.464263,124.047 C121.423119,124.232165 121.401176,124.417878 121.401176,124.591539 C121.401176,124.692339 121.408856,124.789304 121.424765,124.879696 C121.48511,125.22373 121.515831,125.396296 121.579467,125.740878 C121.641458,126.078339 121.802194,126.253643 122.001881,126.253643 C122.154389,126.253643 122.329937,126.1512 122.501646,125.941383 C124.166066,123.902374 125.005956,122.884513 126.675313,120.8466 C127.019828,120.42587 127.251881,119.713696 127.251881,119.147243 C127.251881,119.060687 127.246944,118.977417 127.235423,118.899078 C127.18605,118.557235 127.162461,118.386313 127.115831,118.045017 C127.070298,117.713583 126.927665,117.542113 126.739498,117.542113" id="Fill-75" fill="#A479AC"></path>
                <path d="M130.043103,107.1378 C129.905956,107.1378 129.738636,107.242435 129.563636,107.456635 C129.125313,107.992409 128.743495,108.457513 128.386364,108.888652 C127.385737,110.097704 126.583699,111.041061 125.303292,112.532243 C125.088245,112.783148 124.905016,113.137591 124.787618,113.501896 C124.698746,113.776904 124.64663,114.057939 124.64663,114.304461 C124.64663,114.358148 124.648824,114.410191 124.653762,114.460591 C124.687226,114.7986 124.704781,114.967878 124.740439,115.306983 C124.775,115.636226 124.913245,115.807148 125.100313,115.807148 C125.24569,115.807148 125.42069,115.704157 125.59953,115.493791 C127.319906,113.466835 128.173511,112.451713 129.839577,110.413252 C130.202194,109.970061 130.459483,109.206391 130.458386,108.633365 C130.458386,108.57913 130.456191,108.527087 130.451254,108.476687 C130.418887,108.138678 130.402978,107.969948 130.372257,107.631939 C130.342633,107.305983 130.217006,107.1378 130.043103,107.1378" id="Fill-76" fill="#A479AC"></path>
                <path d="M133.105329,97.2670696 C132.977508,97.2670696 132.82116,97.3738957 132.658229,97.5935739 C131.123276,99.6605217 130.317947,100.685504 128.65627,102.725061 C128.284326,103.182496 128.000157,103.973557 128.000157,104.548226 C128.000157,104.583835 128.001254,104.618896 128.003448,104.652861 C128.025392,104.988678 128.036912,105.156861 128.059953,105.492678 C128.078056,105.750157 128.159248,105.909026 128.278292,105.963261 C128.309561,105.977504 128.343025,105.984626 128.378683,105.984626 C128.515831,105.984626 128.684248,105.880539 128.859796,105.666339 C130.532445,103.629522 131.347649,102.606183 132.909483,100.544713 C133.249608,100.096591 133.490439,99.3296348 133.48989,98.7560609 C133.489342,98.7023739 133.487147,98.6503304 133.482759,98.5999304 C133.452586,98.2624696 133.437774,98.0937391 133.407602,97.7562783 C133.379075,97.4330609 133.26442,97.2670696 133.105329,97.2670696" id="Fill-77" fill="#A479AC"></path>
                <path d="M135.682053,86.7055304 C135.565752,86.7055304 135.427508,86.8167391 135.289263,87.044087 C133.997335,89.1641739 133.298981,90.212713 131.82163,92.2922609 C131.496317,92.7507913 131.252194,93.5308957 131.251646,94.1050174 C131.251097,94.1510348 131.252743,94.1959565 131.256034,94.238687 C131.280721,94.5750522 131.29279,94.7432348 131.317476,95.0796 C131.341066,95.4011739 131.453527,95.5671652 131.610972,95.5671652 C131.737696,95.5671652 131.892947,95.4597913 132.054232,95.2395652 C133.571082,93.1687826 134.293574,92.1257217 135.640909,90.017687 C135.916301,89.5865478 136.098981,88.8727304 136.098433,88.3079217 C136.098433,88.2153391 136.093495,88.1271391 136.083072,88.0444174 C136.040282,87.7042174 136.018887,87.5338435 135.975549,87.1936435 C135.934404,86.8704261 135.824138,86.7049826 135.682053,86.7055304" id="Fill-78" fill="#A479AC"></path>
                <path d="M137.115517,75.8952783 C137.011285,75.8952783 136.898276,76.012513 136.796238,76.2513652 C135.855956,78.4476 135.31779,79.5306522 134.133386,81.6737478 C133.894201,82.1065304 133.73127,82.810487 133.73127,83.3725565 C133.73127,83.4733565 133.736207,83.5697739 133.747179,83.6590696 C133.78942,83.9998174 133.810266,84.1696435 133.850862,84.5092957 C133.889812,84.8314174 133.998981,84.9968609 134.138871,84.9968609 C134.254075,84.9968609 134.390125,84.8845565 134.52453,84.656113 C135.778056,82.5278087 136.354624,81.4524261 137.37884,79.2748174 C137.551097,78.9083217 137.648746,78.3478957 137.648746,77.839513 C137.648746,77.6291478 137.63174,77.4275478 137.59663,77.2527913 C137.526411,76.9065652 137.491301,76.7334522 137.419436,76.3866783 C137.352508,76.0612696 137.240047,75.8952783 137.115517,75.8952783" id="Fill-79" fill="#A479AC"></path>
            </g>
        </g>
    </g>
</svg>