<?xml version="1.0" encoding="UTF-8"?>
<svg width="217px" height="19px" viewBox="0 0 217 19" version="1.1" xmlns="http://www.w3.org/2000/svg" xmlns:xlink="http://www.w3.org/1999/xlink">
    <!-- Generator: Sketch 43.1 (39012) - http://www.bohemiancoding.com/sketch -->
    <title>pencil</title>
    <desc>Created with Sketch.</desc>
    <defs></defs>
    <g id="Welcome" stroke="none" stroke-width="1" fill="none" fill-rule="evenodd">
        <g id="Desktop" transform="translate(-133.000000, -821.000000)">
            <g id="wip-pencil-4-+-62" transform="translate(60.000000, 820.000000)">
                <g id="pencil" transform="translate(73.000000, 1.000000)">
                    <path d="M0.533180723,7.2410625 C1.31456627,7.623 0.0564698795,8.313375 0.895638554,8.5785 C1.19112048,8.6716875 1.38679518,8.84625 1.53519277,9.04575 L8.8513253,9.326625 L11.0483976,6.5008125 L2.9653253,6.9575625 C1.68884337,7.1334375 1.47609639,7.21875 1.20293976,7.21875 C1.00595181,7.2200625 0.803710843,7.21875 0.605409639,7.2279375 L0.533180723,7.2410625" id="Fill-1" fill="#5D5D5D"></path>
                    <polygon id="Fill-2" fill="#EBC200" points="30.2048193 0 177.289157 0 177.289157 15.75 30.2048193 15.75"></polygon>
                    <polyline id="Fill-3" fill="#F2CB9C" points="30.2048193 15.7513125 5.0336988 9.673125 4.07633735 6.42075 30.2048193 -0.0013125 30.2048193 15.7513125"></polyline>
                    <polygon id="Fill-4" fill="#F4D22A" points="30.2048193 0 177.289157 0 177.289157 2.625 30.2048193 2.625"></polygon>
                    <polygon id="Fill-5" fill="#F6DD52" points="30.2048193 2.625 177.289157 2.625 177.289157 13.125 30.2048193 13.125"></polygon>
                    <polygon id="Fill-6" fill="#04994A" points="170.722892 0 179.915663 0 179.915663 15.75 170.722892 15.75"></polygon>
                    <polygon id="Fill-7" fill="#04994A" points="182.542169 0 200.927711 0 200.927711 15.75 182.542169 15.75"></polygon>
                    <path d="M216.52259,11.9476875 C215.944759,15.143625 212.746988,15.7513125 212.746988,15.7513125 L212.746988,-0.0013125 L214.153482,1.26 C214.153482,1.26 217.61653,5.90625 216.52259,11.9476875" id="Fill-8" fill="#D48CE0"></path>
                    <polyline id="Fill-9" fill="#F2CB9C" points="28.776 0.2848125 35.9778795 4.197375 28.6998313 7.9629375 28.776 0.2848125"></polyline>
                    <polyline id="Fill-10" fill="#EFDEC7" points="28.7668072 11.6458125 35.9962651 12.9045 28.7457952 14.01225 28.7668072 11.6458125"></polyline>
                    <polyline id="Fill-11" fill="#F2CB9C" points="27.483759 8.8265625 34.6922048 12.0238125 27.4220361 15.0688125 27.483759 8.8265625"></polyline>
                    <polygon id="Fill-12" fill="#04994A" points="203.554217 0 212.746988 0 212.746988 15.75 203.554217 15.75"></polygon>
                    <polyline id="Fill-13" fill="#F9E781" points="170.722892 5.25 33.9423373 5.25 30.2048193 7.184625 30.2048193 7.875 170.722892 7.875 170.722892 5.25"></polyline>
                    <polyline id="Fill-14" fill="#F7DAB7" points="33.9423373 5.25 30.2048193 5.25 30.2048193 7.184625 33.9423373 5.25"></polyline>
                    <polygon id="Fill-15" fill="#04B750" points="170.722892 2.625 212.746988 2.625 212.746988 13.125 170.722892 13.125"></polygon>
                    <polyline id="Fill-16" fill="#99E1AF" points="212.746988 5.25 196.987952 5.25 196.987952 6.5625 187.795181 6.5625 187.795181 5.25 170.722892 5.25 170.722892 7.875 212.746988 7.875 212.746988 5.25"></polyline>
                    <polygon id="Fill-17" fill="#99E1AF" points="187.795181 2.625 196.987952 2.625 196.987952 3.9375 187.795181 3.9375"></polygon>
                    <polygon id="Fill-18" fill="#D6F2DA" points="187.795181 5.25 196.987952 5.25 196.987952 6.5625 187.795181 6.5625"></polygon>
                    <polygon id="Fill-19" fill="#99E1AF" points="187.795181 7.875 196.987952 7.875 196.987952 9.1875 187.795181 9.1875"></polygon>
                    <polygon id="Fill-20" fill="#99E1AF" points="187.795181 10.5 196.987952 10.5 196.987952 11.8125 187.795181 11.8125"></polygon>
                    <polygon id="Fill-21" fill="#99D4AC" points="187.795181 0 196.987952 0 196.987952 1.3125 187.795181 1.3125"></polygon>
                    <polygon id="Fill-22" fill="#99D4AC" points="187.795181 13.125 196.987952 13.125 196.987952 14.4375 187.795181 14.4375"></polygon>
                    <path d="M179.915663,15.75 L182.542169,15.75 L182.542169,14.4375 L179.915663,14.4375 L179.915663,15.75 Z M200.927711,15.75 L203.554217,15.75 L203.554217,14.4375 L200.927711,14.4375 L200.927711,15.75 Z" id="Fill-23" fill="#FDFBF0"></path>
                    <polygon id="Fill-24" fill="#99D4AC" points="170.722892 15.75 179.915663 15.75 179.915663 14.4375 170.722892 14.4375"></polygon>
                    <polygon id="Fill-25" fill="#99D4AC" points="182.542169 15.75 200.927711 15.75 200.927711 14.4375 182.542169 14.4375"></polygon>
                    <polygon id="Fill-26" fill="#99D4AC" points="203.554217 15.75 212.746988 15.75 212.746988 14.4375 203.554217 14.4375"></polygon>
                    <polygon id="Fill-27" fill="#F6DD52" points="179.915663 0 182.542169 0 182.542169 15.75 179.915663 15.75"></polygon>
                    <polygon id="Fill-28" fill="#F6DD52" points="200.927711 0 203.554217 0 203.554217 15.75 200.927711 15.75"></polygon>
                    <path d="M213.290675,15.75 L212.753554,15.75 C212.749614,15.7513125 212.746988,15.7513125 212.746988,15.7513125 L212.746988,15.75 L30.748506,15.75 L27.0123012,15.876 L26.2650602,15.8641875 L26.2650602,15.8825625 L4.72771084,16.76325 L5.18209639,16.8433125 L1.53519277,16.86825 C1.38679518,16.9010625 1.19112048,16.9299375 0.895638554,16.9456875 C0.0564698795,16.989 1.31456627,17.1045 0.533180723,17.1688125 L0.605409639,17.170125 C0.803710843,17.17275 1.00595181,17.1714375 1.20293976,17.17275 C1.47609639,17.17275 1.68884337,17.185875 2.9653253,17.2160625 L4.59638554,17.2305 L4.48344578,17.3053125 L28.7733735,18.2949375 L28.776,18.32775 L29.0255181,18.304125 L30.748506,18.375 L213.290675,18.375 L214.561904,18.165 C214.561904,18.165 217.888373,17.390625 216.794434,16.3839375 C216.216602,15.8510625 213.290675,15.75 213.290675,15.75" id="Fill-29" fill="#EEEEEE"></path>
                    <polyline id="Fill-30" fill="#DCB808" points="177.289157 15.75 30.748506 15.75 177.289157 15.75"></polyline>
                    <path d="M212.753554,15.75 L212.746988,15.75 L212.746988,15.7513125 C212.746988,15.7513125 212.749614,15.7513125 212.753554,15.75" id="Fill-31" fill="#C887D3"></path>
                    <path d="M182.542169,15.75 L179.915663,15.75 L182.542169,15.75 M203.554217,15.75 L200.927711,15.75 L203.554217,15.75" id="Fill-32" fill="#ECECE1"></path>
                    <polyline id="Fill-33" fill="#93C8A4" points="179.915663 15.75 170.722892 15.75 179.915663 15.75"></polyline>
                    <polyline id="Fill-34" fill="#93C8A4" points="200.927711 15.75 182.542169 15.75 200.927711 15.75"></polyline>
                    <polyline id="Fill-35" fill="#93C8A4" points="212.746988 15.75 203.554217 15.75 212.746988 15.75"></polyline>
                </g>
            </g>
        </g>
    </g>
</svg>