<?xml version="1.0" encoding="UTF-8"?>
<svg width="136px" height="26px" viewBox="0 0 136 26" version="1.1" xmlns="http://www.w3.org/2000/svg" xmlns:xlink="http://www.w3.org/1999/xlink">
    <!-- Generator: Sketch 43.1 (39012) - http://www.bohemiancoding.com/sketch -->
    <title>small-pencil</title>
    <desc>Created with Sketch.</desc>
    <defs></defs>
    <g id="Welcome" stroke="none" stroke-width="1" fill="none" fill-rule="evenodd">
        <g id="Desktop" transform="translate(-824.000000, -66.000000)">
            <g id="Liz-Lara-2-+-UX-Developer-|-Illus-+-Pencil-3" transform="translate(96.000000, 60.000000)">
                <g id="small-pencil" transform="translate(728.000988, 5.637080)">
                    <path d="M0.733973149,10.9295874 C1.80962345,11.453334 0.0777360724,12.3982376 1.23293026,12.7636003 C1.63968878,12.8913873 1.90905331,13.1307629 2.11333648,13.404335 L12.1846774,13.7894957 L15.209153,9.91449089 L4.08204771,10.540827 C2.32485091,10.7820024 2.03198478,10.8971907 1.65595912,10.8989905 C1.38478678,10.8989905 1.10638317,10.8971907 0.833403009,10.9115892 L0.733973149,10.9295874" id="Fill-1" fill="#5D5D5D"></path>
                    <polygon id="Fill-2" fill="#EBC200" points="41.5797597 1 81.3517037 1 81.3517037 22.5977974 41.5797597 22.5977974"></polygon>
                    <polyline id="Fill-3" fill="#F2CB9C" points="41.5797597 22.5995973 6.92935734 14.2646473 5.61145974 9.80470209 41.5797597 0.998200184 41.5797597 22.5995973"></polyline>
                    <polygon id="Fill-4" fill="#F4D22A" points="41.5797597 1 81.3517037 1 81.3517037 4.59963291 41.5797597 4.59963291"></polygon>
                    <polygon id="Fill-5" fill="#F6DD52" points="41.5797597 4.59963291 81.3517037 4.59963291 81.3517037 18.9981645 41.5797597 18.9981645"></polygon>
                    <polygon id="Fill-6" fill="#04994A" points="72.3126255 1 84.967335 1 84.967335 22.5977974 72.3126255 22.5977974"></polygon>
                    <polygon id="Fill-7" fill="#04994A" points="88.5829662 1 113.892385 1 113.892385 22.5977974 88.5829662 22.5977974"></polygon>
                    <path d="M135.360196,17.3819294 C134.564757,21.7662822 130.162726,22.5995973 130.162726,22.5995973 L130.162726,0.998200184 L132.098896,2.72602398 C132.098896,2.72602398 136.866106,9.09737422 135.360196,17.3819294" id="Fill-8" fill="#D48CE0"></path>
                    <polyline id="Fill-9" fill="#F2CB9C" points="39.6128563 1.39056017 49.5251094 6.75581302 39.5080029 11.9194864 39.6128563 1.39056017"></polyline>
                    <polyline id="Fill-10" fill="#EFDEC7" points="39.6002015 16.9697714 49.5522266 18.6957954 39.5712765 20.2148405 39.6002015 16.9697714"></polyline>
                    <polyline id="Fill-11" fill="#F2CB9C" points="37.8339657 13.1037656 47.7570657 17.4881185 37.7489983 21.6618929 37.8339657 13.1037656"></polyline>
                    <polygon id="Fill-12" fill="#04994A" points="117.508016 1 130.162726 1 130.162726 22.5977974 117.508016 22.5977974"></polygon>
                    <polyline id="Fill-13" fill="#F9E781" points="72.3126255 8.19926581 46.724803 8.19926581 41.5797597 10.8521953 41.5797597 11.7988987 72.3126255 11.7988987 72.3126255 8.19926581"></polyline>
                    <polyline id="Fill-14" fill="#F7DAB7" points="46.724803 8.19926581 41.5797597 8.19926581 41.5797597 10.8521953 46.724803 8.19926581"></polyline>
                    <polygon id="Fill-15" fill="#04B750" points="72.3126255 4.59963291 130.162726 4.59963291 130.162726 18.9981645 72.3126255 18.9981645"></polygon>
                    <polyline id="Fill-16" fill="#99E1AF" points="130.162726 8.19926581 108.468938 8.19926581 108.468938 9.99908227 95.8142288 9.99908227 95.8142288 8.19926581 72.3126255 8.19926581 72.3126255 11.7988987 130.162726 11.7988987 130.162726 8.19926581"></polyline>
                    <polygon id="Fill-17" fill="#99E1AF" points="95.8142288 4.59963291 108.468938 4.59963291 108.468938 6.39944936 95.8142288 6.39944936"></polygon>
                    <polygon id="Fill-18" fill="#D6F2DA" points="95.8142288 8.19926581 108.468938 8.19926581 108.468938 9.99908227 95.8142288 9.99908227"></polygon>
                    <polygon id="Fill-19" fill="#99E1AF" points="95.8142288 11.7988987 108.468938 11.7988987 108.468938 13.5987152 95.8142288 13.5987152"></polygon>
                    <polygon id="Fill-20" fill="#99E1AF" points="95.8142288 15.3985316 108.468938 15.3985316 108.468938 17.1983481 95.8142288 17.1983481"></polygon>
                    <polygon id="Fill-21" fill="#99D4AC" points="95.8142288 1 108.468938 1 108.468938 2.79981645 95.8142288 2.79981645"></polygon>
                    <polygon id="Fill-22" fill="#99D4AC" points="95.8142288 18.9981645 108.468938 18.9981645 108.468938 20.797981 95.8142288 20.797981"></polygon>
                    <path d="M84.967335,22.5977974 L88.5829662,22.5977974 L88.5829662,20.797981 L84.967335,20.797981 L84.967335,22.5977974 Z M113.892385,22.5977974 L117.508016,22.5977974 L117.508016,20.797981 L113.892385,20.797981 L113.892385,22.5977974 Z" id="Fill-23" fill="#FDFBF0"></path>
                    <polygon id="Fill-24" fill="#99D4AC" points="72.3126255 22.5977974 84.967335 22.5977974 84.967335 20.797981 72.3126255 20.797981"></polygon>
                    <polygon id="Fill-25" fill="#99D4AC" points="88.5829662 22.5977974 113.892385 22.5977974 113.892385 20.797981 88.5829662 20.797981"></polygon>
                    <polygon id="Fill-26" fill="#99D4AC" points="117.508016 22.5977974 130.162726 22.5977974 130.162726 20.797981 117.508016 20.797981"></polygon>
                    <polygon id="Fill-27" fill="#F6DD52" points="84.967335 1 88.5829662 1 88.5829662 22.5977974 84.967335 22.5977974"></polygon>
                    <polygon id="Fill-28" fill="#F6DD52" points="113.892385 1 117.508016 1 117.508016 22.5977974 113.892385 22.5977974"></polygon>
                    <path d="M130.911162,22.5977974 L130.171765,22.5977974 C130.166342,22.5995973 130.162726,22.5995973 130.162726,22.5995973 L130.162726,22.5977974 L42.3281953,22.5977974 L37.1849598,22.7705798 L36.1563128,22.7543815 L36.1563128,22.7795789 L6.5081363,23.9872557 L7.13364051,24.0988444 L2.11333648,24.1312411 C1.90905331,24.1762365 1.63968878,24.2158324 1.23293026,24.2374302 C0.0777360724,24.2968242 1.80962345,24.455208 0.733973149,24.543399 L0.833403009,24.5451988 C1.10638317,24.5487985 1.38478678,24.5469987 1.65595912,24.5487985 C2.03198478,24.5487985 2.32485091,24.5667966 4.08204771,24.6081924 L6.32735473,24.6279904 L6.17188259,24.7305799 L39.6092406,26.0858417 L39.6128563,26.132637 L39.9563412,26.1002403 L42.3281953,26.1974303 L130.911162,26.1974303 L132.661127,25.9094597 C132.661127,25.9094597 137.240324,24.847568 135.734414,23.4671088 C134.938975,22.7363833 130.911162,22.5977974 130.911162,22.5977974" id="Fill-29" fill="#EEEEEE"></path>
                    <polyline id="Fill-30" fill="#DCB808" points="81.3517037 22.5977974 42.3281953 22.5977974 81.3517037 22.5977974"></polyline>
                    <path d="M130.171765,22.5977974 L130.162726,22.5977974 L130.162726,22.5995973 C130.162726,22.5995973 130.166342,22.5995973 130.171765,22.5977974" id="Fill-31" fill="#C887D3"></path>
                    <path d="M88.5829662,22.5977974 L84.967335,22.5977974 L88.5829662,22.5977974 M117.508016,22.5977974 L113.892385,22.5977974 L117.508016,22.5977974" id="Fill-32" fill="#ECECE1"></path>
                    <polyline id="Fill-33" fill="#93C8A4" points="84.967335 22.5977974 72.3126255 22.5977974 84.967335 22.5977974"></polyline>
                    <polyline id="Fill-34" fill="#93C8A4" points="113.892385 22.5977974 88.5829662 22.5977974 113.892385 22.5977974"></polyline>
                    <polyline id="Fill-35" fill="#93C8A4" points="130.162726 22.5977974 117.508016 22.5977974 130.162726 22.5977974"></polyline>
                </g>
            </g>
        </g>
    </g>
</svg>